<?xml version="1.0" encoding="UTF-8"?>
<svg id="_Слой_2" data-name="Слой 2" xmlns="http://www.w3.org/2000/svg" viewBox="0 0 546.5 502.26">
  <defs>
    <style>
      .cls-1 {
        fill: #cb7451;
      }

      .cls-1, .cls-2 {
        stroke-width: 0px;
      }

      .cls-2 {
        fill: #364b32;
      }
    </style>
  </defs>
  <g id="_Слой_1-2" data-name="Слой 1">
    <g>
      <g>
        <path class="cls-1" d="M160.39,484.71l11.99-15.62h-5.56l-10.61,14.01h-14.65v-14.01h-4.5v32.16h4.5v-13.93h15.16l11.8,13.93h5.87l-14.01-16.54Z"/>
        <path class="cls-1" d="M213.26,477.58c-.92-2.19-2.2-4-3.86-5.47-1.65-1.47-3.63-2.59-5.93-3.36-2.29-.75-4.83-1.14-7.58-1.14s-5.29.37-7.58,1.1c-2.29.73-4.28,1.84-5.93,3.3-1.65,1.47-2.94,3.3-3.86,5.49-.92,2.18-1.38,4.74-1.38,7.66s.46,5.32,1.38,7.45c.92,2.13,2.2,3.91,3.86,5.34,1.65,1.41,3.63,2.5,5.93,3.21,2.29.72,4.83,1.08,7.58,1.08s5.29-.33,7.58-.99c2.29-.66,4.28-1.69,5.93-3.1,1.65-1.41,2.94-3.19,3.86-5.36.92-2.15,1.38-4.72,1.38-7.69s-.46-5.36-1.38-7.53ZM208.87,490.87c-.66,1.62-1.6,2.96-2.81,4.06-1.21,1.08-2.68,1.89-4.41,2.44-1.73.55-3.65.83-5.76.83s-4.04-.28-5.76-.84c-1.73-.57-3.19-1.39-4.41-2.48-1.21-1.08-2.15-2.44-2.81-4.04-.66-1.62-.99-3.47-.99-5.58s.33-4.15.99-5.84c.66-1.69,1.6-3.1,2.81-4.24,1.21-1.16,2.68-2.04,4.41-2.62,1.73-.61,3.65-.9,5.76-.9s4.04.31,5.76.94c1.73.64,3.19,1.54,4.41,2.72,1.21,1.18,2.15,2.61,2.81,4.28.66,1.67.99,3.56.99,5.67s-.33,4.02-.99,5.62Z"/>
        <path class="cls-1" d="M256.6,476.92c-.75-1.76-1.85-3.27-3.3-4.53-1.47-1.25-3.27-2.24-5.45-2.94-2.17-.7-4.68-1.06-7.53-1.1h-4.55c-2.85.04-5.36.39-7.53,1.08-2.18.68-4,1.67-5.47,2.94-1.47,1.27-2.59,2.79-3.32,4.55-.75,1.76-1.14,3.73-1.14,5.89v.64c0,2.61.46,4.86,1.36,6.77.9,1.93,2.15,3.49,3.73,4.7,1.58,1.19,3.41,2.09,5.53,2.66,2.11.57,4.41.83,6.85.79v2.86h4.55v-2.86c2.44.04,4.74-.22,6.85-.79,2.11-.57,3.95-1.47,5.51-2.7,1.56-1.21,2.79-2.77,3.69-4.68.92-1.89,1.36-4.15,1.36-6.76v-.64c0-2.17-.37-4.13-1.12-5.89ZM235.76,494.49c-1.69,0-3.29-.2-4.83-.59-1.52-.37-2.86-1.01-4.04-1.89-1.16-.9-2.09-2.06-2.77-3.51-.7-1.43-1.05-3.23-1.05-5.36.04-3.62,1.19-6.35,3.45-8.19,2.28-1.84,5.34-2.75,9.23-2.75v22.29ZM251.94,488.51c-.68,1.45-1.6,2.61-2.75,3.51-1.17.88-2.52,1.52-4.04,1.89-1.54.39-3.14.59-4.83.59v-22.29c3.89.04,6.96.97,9.22,2.81,2.24,1.84,3.38,4.55,3.41,8.13,0,2.13-.33,3.93-1.01,5.36Z"/>
        <path class="cls-1" d="M267.74,497.19v-11.34h20.03v-4.04h-20.03v-8.68h24.65v-4.04h-29.17v32.16h30.69v-4.06h-26.18Z"/>
        <path class="cls-1" d="M324.1,469.03l-20.54,28.95v-28.95h-4.59v32.25h7.77l20.58-28.99v28.99h4.59v-32.25h-7.8ZM322.73,457.28c0,1.71-.68,3.12-2.04,4.2-1.38,1.08-3.25,1.63-5.64,1.63s-4.24-.5-5.58-1.47c-1.32-.99-2.02-2.44-2.04-4.37h-4.46c0,1.52.31,2.88.92,4.06.61,1.19,1.47,2.18,2.55,2.99,1.08.81,2.37,1.43,3.84,1.84,1.47.42,3.07.62,4.77.62s3.3-.22,4.77-.66c1.47-.46,2.75-1.08,3.82-1.91,1.06-.83,1.91-1.82,2.53-2.99.61-1.16.92-2.48.92-3.95h-4.37Z"/>
        <path class="cls-1" d="M366.78,469.08v12.72h-23.99v-12.72h-4.5v32.16h4.5v-15.4h23.99v15.4h4.5v-32.16h-4.5Z"/>
        <path class="cls-1" d="M388.01,469.08c-1.69,0-3.21.22-4.59.66-1.4.44-2.55,1.1-3.52,1.98-.95.86-1.71,1.96-2.26,3.29-.53,1.32-.79,2.85-.79,4.59.09,2.57.7,4.61,1.85,6.11,1.16,1.51,2.74,2.55,4.75,3.16l-7.12,12.32h5.2l6.66-11.71h16.76v11.77h4.5v-32.16h-21.44ZM404.95,485.44h-16.76c-2,0-3.58-.53-4.77-1.56-1.21-1.05-1.8-2.57-1.8-4.55s.59-3.49,1.8-4.57c1.19-1.08,2.77-1.63,4.77-1.63h16.76v12.32Z"/>
      </g>
      <path class="cls-1" d="M408.99,135.74c0-18.03-13.82-32.88-31.43-34.53,3.41-7.88,5.32-16.56,5.32-25.68v-4.59h-24.47c-9.11,0-17.79,1.91-25.68,5.32,3.41-7.88,5.32-16.56,5.32-25.68v-24.45h-4.59c-9.12,0-17.81,1.89-25.68,5.31-1.65-17.61-16.5-31.43-34.53-31.43s-32.88,13.82-34.53,31.43c-7.88-3.41-16.56-5.31-25.68-5.31h-4.59v24.45c0,9.12,1.91,17.81,5.31,25.68-7.88-3.41-16.56-5.32-25.66-5.32h-24.47v4.59c0,9.12,1.91,17.81,5.32,25.68-17.61,1.65-31.43,16.5-31.43,34.53s13.82,32.88,31.43,34.53c-3.41,7.89-5.32,16.58-5.32,25.68v4.59h24.47c9.11,0,17.79-1.89,25.66-5.31-3.4,7.88-5.31,16.56-5.31,25.68v24.45h4.59c9.12,0,17.81-1.91,25.68-5.31,1.65,17.59,16.5,31.43,34.53,31.43s32.88-13.84,34.53-31.45c7.88,3.41,16.56,5.32,25.68,5.32h4.59v-24.45c0-9.12-1.91-17.81-5.32-25.68,7.89,3.41,16.58,5.31,25.68,5.31h24.47v-4.59c0-9.11-1.91-17.79-5.32-25.68,17.61-1.63,31.43-16.5,31.43-34.53ZM358.41,80.11h15.11c-.62,7.49-2.74,14.58-6.04,20.93h-13.05c-17.55,0-32.11,13.13-34.37,30.07-.66.02-1.32.04-1.98.04h-15.11c2.35-28.53,26.33-51.03,55.44-51.03ZM361.52,110.22c-7.91,9.88-19.11,17.02-31.94,19.72,2.64-11.27,12.78-19.72,24.86-19.72h7.09ZM361.52,161.26h-7.09c-12.08,0-22.21-8.43-24.86-19.72,12.83,2.72,24.03,9.84,31.94,19.72ZM307.95,54.56v-13.05c6.37-3.29,13.44-5.42,20.93-6.02v15.09c0,29.13-22.51,53.09-51.04,55.44v-15.09c0-.68.02-1.34.04-1.98,16.94-2.28,30.07-16.82,30.07-34.38ZM293.78,140.33c.53,7.45,2.31,14.54,5.16,21.09-6.55-2.83-13.66-4.63-21.09-5.14l-4.59-.16-4.59.16c-7.44.51-14.54,2.31-21.09,5.14,2.85-6.55,4.63-13.64,5.14-21.09l.17-4.59-.17-4.59c-.51-7.43-2.29-14.54-5.14-21.09,6.55,2.85,13.66,4.63,21.09,5.16l4.59.16,4.59-.16c7.43-.53,14.54-2.31,21.09-5.16-2.85,6.55-4.63,13.66-5.16,21.09l-.17,4.59.17,4.59ZM279.05,79.42c2.7-12.83,9.84-24.03,19.72-31.94v7.09c0,12.08-8.43,22.21-19.72,24.86ZM279.68,9.99c10.98,2.86,19.09,12.85,19.09,24.71v1.51c-10.56,6.72-19.04,16.41-24.27,27.87-2.85-23.48-1.08-42.55,5.18-54.08ZM247.73,34.7c0-12.91,9.6-23.59,22.05-25.28-4.53,10.52-6.43,24.75-5.62,41.73-4.57-5.86-10.13-10.92-16.43-14.94v-1.51ZM247.73,47.47c9.88,7.91,17.02,19.11,19.72,31.94-11.29-2.64-19.72-12.78-19.72-24.86v-7.09ZM217.63,35.49c7.49.61,14.56,2.74,20.93,6.02v13.05c0,17.57,13.13,32.11,30.07,34.38.02.64.04,1.3.04,1.98v15.09c-28.53-2.35-51.04-26.31-51.04-55.44v-15.09ZM188.09,80.11c29.12,0,53.09,22.51,55.44,51.03h-15.11c-.66,0-1.32-.02-1.98-.04-2.26-16.94-16.82-30.07-34.37-30.07h-13.05c-3.3-6.35-5.42-13.44-6.04-20.93h15.11ZM216.91,129.94c-12.81-2.7-24.01-9.84-31.92-19.72h7.09c12.08,0,22.21,8.44,24.84,19.72ZM172.21,110.22h1.51c6.72,10.56,16.39,19.04,27.87,24.29-23.48,2.83-42.57,1.06-54.08-5.2,2.86-10.96,12.85-19.09,24.71-19.09ZM216.91,141.54c-2.63,11.29-12.76,19.72-24.84,19.72h-7.09c7.91-9.88,19.11-17,31.92-19.72ZM146.93,139.21c8.94,3.86,20.52,5.8,34.24,5.8,2.44,0,4.94-.06,7.49-.18-5.87,4.57-10.92,10.13-14.94,16.43h-1.51c-12.91,0-23.59-9.6-25.28-22.05ZM188.09,191.36h-15.11c.62-7.49,2.74-14.56,6.04-20.93h13.05c17.55,0,32.11-13.11,34.37-30.05.66-.04,1.32-.06,1.98-.06h15.11c-2.35,28.53-26.33,51.04-55.44,51.04ZM238.55,216.92v13.05c-6.37,3.3-13.44,5.42-20.93,6.04v-15.09c0-29.13,22.51-53.11,51.04-55.44v15.09c0,.66-.02,1.32-.04,1.98-16.96,2.28-30.07,16.82-30.07,34.37ZM267.45,192.08c-2.7,12.81-9.84,24.01-19.72,31.92v-7.09c0-12.08,8.43-22.21,19.72-24.84ZM266.83,261.49c-10.98-2.85-19.09-12.85-19.09-24.69v-1.52c10.56-6.72,19.04-16.39,24.27-27.87,2.85,23.48,1.08,42.57-5.18,54.08ZM298.77,236.8c0,12.89-9.62,23.57-22.05,25.28,4.53-10.54,6.43-24.75,5.62-41.75,4.57,5.87,10.13,10.94,16.43,14.94v1.52ZM298.77,224c-9.88-7.91-17.02-19.11-19.72-31.92,11.29,2.63,19.72,12.76,19.72,24.84v7.09ZM328.88,236.01c-7.49-.62-14.58-2.73-20.93-6.04v-13.05c0-17.55-13.13-32.09-30.07-34.37-.02-.66-.04-1.32-.04-1.98v-15.09c28.53,2.33,51.04,26.31,51.04,55.44v15.09ZM358.41,191.36c-29.12,0-53.09-22.51-55.44-51.04h15.11c.66,0,1.32.02,1.98.06,2.26,16.94,16.82,30.05,34.37,30.05h13.05c3.3,6.37,5.42,13.44,6.04,20.93h-15.11ZM374.29,161.26h-1.51c-6.72-10.54-16.39-19.04-27.87-24.27,23.48-2.85,42.57-1.08,54.08,5.18-2.86,10.98-12.85,19.09-24.71,19.09ZM357.84,126.65c5.87-4.57,10.92-10.13,14.94-16.43h1.51c12.91,0,23.59,9.62,25.28,22.05-10.52-4.53-24.73-6.43-41.73-5.62Z"/>
      <circle class="cls-2" cx="273.25" cy="135.74" r="11.15"/>
      <g>
        <path class="cls-2" d="M73.69,409.6l-1.52.77-4.63,2.33-.57.28c-12.28,5.99-24.6,11.16-36.73,15.42l-1.21.42v-117.86H0v122.72h83.29v-28.9l-9.6,4.81Z"/>
        <path class="cls-2" d="M172.73,310.97v101.69l-.5.26c-5.43,2.92-11.77,4.39-18.84,4.39-8.43,0-15.16-2.96-20.03-8.77-4.83-5.78-7.29-14.59-7.29-26.16v-71.39h-29.57v76.04c0,16.93,3.49,29.54,10.37,37.52,6.85,7.91,16.69,11.93,29.23,11.93,6.88,0,13.57-1.65,19.84-4.9,6.3-3.29,11.79-7.71,16.27-13.16l.51-.64,24.25,15.94h4.77v-122.72h-29.02Z"/>
        <path class="cls-2" d="M302.7,383.87c-2.85-4.66-6.32-8.72-10.32-12.04-4.04-3.38-9.51-7.32-16.27-11.75-5.8-3.82-10.45-7.09-13.82-9.71-3.4-2.64-6.28-5.73-8.55-9.14-1.17-1.73-2.04-3.56-2.63-5.49-.59-1.91-.88-3.91-.88-5.98,0-4.81,1.62-8.87,4.83-12.08,3.19-3.19,7.77-4.81,13.57-4.81h.48l.28.39c6.44,9.22,12.94,19.2,19.31,29.72l18.08-18.27c-4.72-5.14-10.02-9.22-15.79-12.06-5.98-2.96-13.75-4.46-23.11-4.46s-18.08,1.6-25.19,4.75c-7.05,3.14-12.56,7.51-16.34,12.98-3.78,5.45-5.69,11.57-5.69,18.16,0,5.87,1.41,11.13,4.22,15.59,2.85,4.55,6.32,8.43,10.3,11.58,4.04,3.19,9.45,6.92,16.08,11.09,5.58,3.47,10.02,6.46,13.27,8.88,3.29,2.46,6.08,5.34,8.3,8.57,2.26,3.3,3.4,6.96,3.4,10.83,0,3.64-.97,7.1-2.92,10.34-1.91,3.21-4.52,5.84-7.73,7.82-3.23,2.02-6.77,3.03-10.52,3.03h-.7l-.26-.42c-7.21-11.18-13.82-22.87-19.64-34.77l-19.5,15c9,16.5,24.23,24.86,45.29,24.86,9.97,0,18.6-1.76,25.61-5.29,7.01-3.51,12.32-8.11,15.81-13.69,3.49-5.6,5.27-11.66,5.27-18.01,0-5.75-1.43-11-4.24-15.6Z"/>
        <path class="cls-2" d="M407.9,383.87c-2.85-4.66-6.32-8.72-10.3-12.04-4.04-3.38-9.53-7.32-16.28-11.75-5.78-3.82-10.43-7.09-13.81-9.71-3.41-2.64-6.3-5.73-8.57-9.14-1.16-1.73-2.04-3.56-2.63-5.49-.59-1.91-.88-3.91-.88-5.98,0-4.81,1.63-8.87,4.83-12.08,3.21-3.19,7.77-4.81,13.57-4.81h.48l.28.39c6.46,9.2,12.96,19.18,19.33,29.72l18.06-18.27c-4.7-5.14-10.01-9.22-15.77-12.06-5.98-2.96-13.77-4.46-23.11-4.46s-18.08,1.6-25.19,4.75c-7.07,3.14-12.56,7.51-16.36,12.98-3.76,5.45-5.69,11.57-5.69,18.16,0,5.87,1.43,11.13,4.22,15.59,2.85,4.55,6.32,8.43,10.3,11.58,4.06,3.19,9.45,6.92,16.1,11.09,5.56,3.47,10.02,6.46,13.25,8.88,3.29,2.46,6.08,5.34,8.3,8.57,2.26,3.3,3.41,6.96,3.41,10.83,0,3.64-.97,7.1-2.92,10.34-1.93,3.21-4.53,5.84-7.75,7.82-3.23,2.02-6.77,3.03-10.52,3.03h-.68l-.28-.42c-7.21-11.18-13.82-22.87-19.64-34.77l-19.5,15c9.01,16.5,24.25,24.86,45.31,24.86,9.97,0,18.58-1.76,25.61-5.29,6.99-3.51,12.32-8.11,15.81-13.69,3.49-5.6,5.25-11.66,5.25-18.01,0-5.75-1.43-11-4.24-15.6Z"/>
        <path class="cls-2" d="M518.18,315.14c8.98,4.64,15.94,11.49,20.9,20.53,4.94,9.04,7.42,20.1,7.42,33.17,0,8.31-1.47,16.89-4.41,25.75-2.93,8.86-7.21,16.71-12.83,23.55-5.86,5.5-12.58,9.93-20.15,13.29-7.57,3.36-15.64,5.04-24.19,5.04-11.85,0-22.27-2.32-31.25-6.96-8.98-4.64-15.94-11.48-20.88-20.53-4.96-9.04-7.43-20.1-7.43-33.17,0-8.18,1.53-16.74,4.58-25.66,3.06-8.92,7.39-16.8,13.01-23.64,5.74-5.5,12.38-9.93,19.89-13.29,7.52-3.36,15.49-5.04,23.91-5.04,11.98,0,22.45,2.32,31.43,6.96ZM463.47,397.24c3.68,8.68,9.22,15.06,16.69,19.15,7.45,4.09,17.1,6.45,28.95,7.06,1.47-6.11,2.66-13.29,3.58-21.53.91-8.25,1.36-15,1.36-20.25,0-14.29-1.86-25.81-5.59-34.55-3.72-8.73-9.38-15.18-16.95-19.33-7.57-4.15-17.22-6.47-28.95-6.96-1.35,6.35-2.45,13.74-3.3,22.17s-1.28,15.09-1.28,19.98c0,14.17,1.83,25.6,5.49,34.27Z"/>
      </g>
    </g>
  </g>
</svg>